<svg xmlns="http://www.w3.org/2000/svg" viewBox="0 0 128 128" fill="none">
  <defs>
    <linearGradient id="logo-bg" x1="14" y1="10" x2="114" y2="118" gradientUnits="userSpaceOnUse">
      <stop stop-color="#7AA2FF" />
      <stop offset="1" stop-color="#6D54FF" />
    </linearGradient>
    <linearGradient id="logo-panel" x1="36" y1="30" x2="89" y2="99" gradientUnits="userSpaceOnUse">
      <stop stop-color="#F8FBFF" />
      <stop offset="1" stop-color="#D9E6FF" />
    </linearGradient>
  </defs>

  <rect x="10" y="10" width="108" height="108" rx="28" fill="url(#logo-bg)" />

  <rect x="34" y="30" width="60" height="68" rx="16" fill="url(#logo-panel)" />

  <path d="M51 52c0-8.3 6.7-15 15-15s15 6.7 15 15v8h-9v-8a6 6 0 1 0-12 0v8h-9v-8Z" fill="#6A7FC2" />
  <circle cx="66" cy="69" r="5" fill="#4A5D95" />
  <rect x="63.5" y="72" width="5" height="10" rx="2.5" fill="#4A5D95" />

  <path d="M22 58a1 1 0 0 1 1-1h11" stroke="#EAF1FF" stroke-width="5" stroke-linecap="round" />
  <path d="M30 53l5 4.8-5 4.8" stroke="#EAF1FF" stroke-width="5" stroke-linecap="round" stroke-linejoin="round" />

  <path d="M106 70a1 1 0 0 1-1 1H94" stroke="#EAF1FF" stroke-width="5" stroke-linecap="round" />
  <path d="M98 65.2L93 70l5 4.8" stroke="#EAF1FF" stroke-width="5" stroke-linecap="round" stroke-linejoin="round" />

  <circle cx="96" cy="30" r="6" fill="#F8FBFF" fill-opacity=".92" />
  <circle cx="31" cy="97" r="4" fill="#F8FBFF" fill-opacity=".75" />
</svg>
